<svg width="735" height="587" viewBox="0 0 735 587" fill="none" xmlns="http://www.w3.org/2000/svg">
<mask id="path-1-outside-1_3_24" maskUnits="userSpaceOnUse" x="0" y="0" width="735" height="587" fill="black">
<rect fill="white" width="735" height="587"/>
<path fill-rule="evenodd" clip-rule="evenodd" d="M221.199 8.17469C220.391 8.36266 217.481 9.03084 214.733 9.65864C203.735 12.172 192.777 18.2047 185.79 25.5929C180.691 30.9846 177.311 38.2721 161.709 77.5016C154.562 95.4727 147.241 113.047 145.442 116.556L142.169 122.937L135.387 126.193C122.035 132.604 106.119 143.561 95.5278 153.634L90.2664 158.638L70.288 212.606C31.1527 318.322 20.1837 348.217 16.6727 358.724C3.26096 398.863 5.44376 440.998 22.9479 479.878C26.4295 487.61 33.3289 500.131 37.5138 506.311C47.5269 521.098 70.2843 543.176 86.105 553.451C105.929 566.326 131.894 575.512 156.484 578.35C168.39 579.723 191.295 578.83 203.211 576.526C266.617 564.272 317.585 518.3 335.072 457.593C340.235 439.672 340.704 435.522 341.066 404.616C341.356 379.947 340.613 350.388 339.284 333.633L338.837 328L346.348 324.231C352.604 321.09 354.867 320.347 359.902 319.775C368.369 318.813 378.736 319.896 384.658 322.361C387.229 323.431 390.24 324.649 391.351 325.066L393.37 325.826L393.376 364.487C393.386 418.672 394.4 435.049 398.829 452.521C406.163 481.457 421.094 507.586 442.569 529.065C470.226 556.728 505.564 573.915 543.816 578.308C555.97 579.704 578.004 578.864 590.137 576.541C642.946 566.434 686.433 532.878 710.175 483.916C722.229 459.058 726.932 438.942 726.999 411.958C727.046 393.136 725.407 381.462 720.352 364.598C714.903 346.425 652.793 189.043 643.416 169.652C636.808 155.984 633.225 151.203 624.898 144.944C613.791 136.594 590.057 122.317 587.217 122.275C585.715 122.254 579.544 119.424 580.001 118.967C580.2 118.767 581.778 119.103 583.507 119.714C587.547 121.14 587.445 121.167 586.853 118.804C585.815 114.655 558.253 46.6868 554.167 38.1994C550.423 30.4229 549.296 28.784 544.71 24.4584C538.215 18.331 530.516 13.7778 521.282 10.6044C514.3 8.20479 513.878 8.15193 501.665 8.13284C487.257 8.11081 482.465 9.12776 470.664 14.7111C456.934 21.2071 446.57 30.9229 438.165 45.1793L435.815 49.1649L434.835 77.4678C434.295 93.0342 433.658 113.37 433.418 122.659C433.178 131.947 432.797 141.946 432.569 144.878L432.156 150.21L425.878 156.994C417.94 165.571 410.322 175.085 404.413 183.8C401.875 187.543 399.333 190.866 398.764 191.184C398.196 191.502 395.345 191.306 392.429 190.747C389.393 190.165 379.918 189.571 370.242 189.357C356.35 189.05 351.988 189.21 345.646 190.261C341.406 190.963 336.616 191.569 335.001 191.608L332.065 191.679L323.988 179.779C319.545 173.234 313.433 165.024 310.405 161.536C307.376 158.047 303.861 153.985 302.594 152.509L300.289 149.826L299.072 112.746C298.403 92.352 297.579 69.9453 297.243 62.9536C296.638 50.3632 296.607 50.1914 293.994 44.9642C287.86 32.6954 275.567 20.036 264.636 14.7324C254.651 9.88772 247.698 8.37514 234.047 8.07924C227.788 7.9434 222.006 7.98672 221.199 8.17469ZM240.265 29.8178C243.34 30.2452 247.173 31.0602 248.783 31.6285C255.986 34.1698 267.23 43.8812 270.877 50.7105C273.757 56.1015 274.358 60.8588 275.14 84.4382C275.529 96.1709 276.047 111.78 276.293 119.125L276.738 132.479L266.363 127.702C238.212 114.74 212.059 110.118 182.481 112.877C177.339 113.356 172.945 113.561 172.715 113.332C171.99 112.607 196.827 50.8912 200.728 43.7255C203.667 38.325 214.485 31.3847 222.379 29.8347C227.001 28.9264 233.814 28.9205 240.265 29.8178ZM507.605 30.5161C514.711 32.3224 524.289 36.8095 528.007 40.074C529.852 41.6938 531.947 44.9613 534.312 49.905C538.996 59.6942 560.447 113.313 559.899 113.86C559.664 114.095 554.484 113.885 548.388 113.392C535.007 112.312 513.898 113.386 502.399 115.732C491.957 117.862 477.159 122.96 466.048 128.253C460.795 130.755 456.397 132.668 456.273 132.504C455.856 131.95 457.136 86.8348 457.997 71.7104C458.483 63.1923 459.283 55.5148 459.853 53.8965C463.273 44.205 474.869 34.7014 488.082 30.7613C494.991 28.701 500.204 28.6357 507.605 30.5161ZM151.816 119.275C151.816 120.069 148.152 121.075 147.529 120.452C146.934 119.856 148.931 118.645 150.531 118.631C151.238 118.625 151.816 118.915 151.816 119.275ZM211.866 134.074C231.511 136.194 252.22 143.95 269.082 155.504C282.238 164.518 291.37 173.345 301.245 186.591C310.797 199.405 312.156 203.15 313.304 219.835C314.187 232.664 316.501 313.969 316.154 319.945L315.911 324.12L309.303 315.225C301.612 304.872 289.339 291.797 279.935 283.936C259.844 267.141 231.455 253.445 205.78 248.159C198.552 246.671 172.947 246.049 158.057 247.001C147.684 247.663 144.007 248.229 136.295 250.352C116.08 255.915 96.9675 264.636 79.9487 276.063C74.144 279.961 69.2638 283.018 69.103 282.857C68.589 282.344 105.521 184.125 110.196 173.57C115.119 162.458 141.825 145.137 164.274 138.497C179.896 133.876 196.084 132.372 211.866 134.074ZM552.358 136.612C572.762 139.593 600.526 152.943 614.545 166.515C618.331 170.181 619.978 172.543 622.618 178.096C627.234 187.803 662.823 277.592 662.823 279.53C662.823 280.396 659.563 278.603 649.341 272.115C633.086 261.797 611.393 252.982 592.447 248.997C570.163 244.31 539.773 245.214 517.543 251.225C496.977 256.786 475.113 268.019 458.15 281.74C446.727 290.98 429.496 309.649 422.275 320.612C419.173 325.32 417.091 327.689 416.599 327.072C416.473 326.914 416.622 324.14 416.932 320.91C417.241 317.679 417.518 290.631 417.546 260.803L417.598 206.57L422.477 198.391C429.001 187.451 435.383 179.308 444.722 170.008C453.806 160.962 462.048 154.592 470.941 149.743C483.628 142.827 501.251 136.798 512.678 135.464C520.169 134.59 543.043 135.251 552.358 136.612ZM296.483 145.824C298.499 147.6 298.646 147.881 297.189 147.183C294.364 145.83 291.687 143.585 292.896 143.585C293.47 143.585 295.085 144.593 296.483 145.824ZM438.89 145.035C438.89 145.845 434.531 148.281 434.011 147.762C433.606 147.356 437.35 144.319 438.255 144.319C438.605 144.319 438.89 144.641 438.89 145.035ZM375.803 204.901C378.398 205.568 383.742 207.471 387.68 209.131L394.838 212.148V259.086V306.024L391.718 305.605C390.002 305.376 383.766 304.783 377.862 304.29C368.49 303.505 365.645 303.554 355.469 304.672C349.057 305.376 342.992 306.014 341.991 306.089C340.309 306.214 340.131 305.912 339.643 302.093C339.116 297.976 335.915 212.501 336.278 212.237C338.231 210.814 355.782 204.255 359.596 203.522C362.684 202.929 370.828 203.621 375.803 204.901ZM193.666 269.904C213.833 272.027 236.537 280.273 254.115 291.859C290.068 315.557 312.393 351.653 317.712 394.684C318.81 403.566 318.638 422.412 317.379 431.272C311.148 475.11 286.552 513.546 250.548 535.711C238.004 543.433 219.334 550.809 203.9 554.139C197.125 555.601 194.106 555.795 177.881 555.817C166.462 555.832 157.028 555.477 152.918 554.879C127.002 551.104 101.628 539.77 81.6997 523.068C47.0996 494.07 29.2628 453.764 30.906 408.287C32.8759 353.764 62.1347 306.747 108.131 284.193C120.738 278.011 135.159 273.164 151.449 269.632C154.435 268.986 186.924 269.194 193.666 269.904ZM590.158 270.931C603.733 273.319 626.776 282.743 639.695 291.191C663.643 306.851 680.527 327.009 692.259 353.952C702.07 376.478 703.474 384.105 703.474 414.895C703.475 440.605 703.342 441.598 697.621 458.584C689.813 481.759 677.774 500.706 660.563 516.904C643.527 532.936 624.515 543.664 600.783 550.636C584.046 555.552 581.601 555.858 559.3 555.83C541.204 555.807 538.323 555.634 531.529 554.162C480.237 543.048 441.21 508.41 424.665 459.318C405.144 401.392 421.679 340.578 467.422 302.064C489.816 283.209 514.083 272.916 543.148 269.945C552.908 268.947 582.401 269.566 590.158 270.931Z"/>
</mask>
<path fill-rule="evenodd" clip-rule="evenodd" d="M221.199 8.17469C220.391 8.36266 217.481 9.03084 214.733 9.65864C203.735 12.172 192.777 18.2047 185.79 25.5929C180.691 30.9846 177.311 38.2721 161.709 77.5016C154.562 95.4727 147.241 113.047 145.442 116.556L142.169 122.937L135.387 126.193C122.035 132.604 106.119 143.561 95.5278 153.634L90.2664 158.638L70.288 212.606C31.1527 318.322 20.1837 348.217 16.6727 358.724C3.26096 398.863 5.44376 440.998 22.9479 479.878C26.4295 487.61 33.3289 500.131 37.5138 506.311C47.5269 521.098 70.2843 543.176 86.105 553.451C105.929 566.326 131.894 575.512 156.484 578.35C168.39 579.723 191.295 578.83 203.211 576.526C266.617 564.272 317.585 518.3 335.072 457.593C340.235 439.672 340.704 435.522 341.066 404.616C341.356 379.947 340.613 350.388 339.284 333.633L338.837 328L346.348 324.231C352.604 321.09 354.867 320.347 359.902 319.775C368.369 318.813 378.736 319.896 384.658 322.361C387.229 323.431 390.24 324.649 391.351 325.066L393.37 325.826L393.376 364.487C393.386 418.672 394.4 435.049 398.829 452.521C406.163 481.457 421.094 507.586 442.569 529.065C470.226 556.728 505.564 573.915 543.816 578.308C555.97 579.704 578.004 578.864 590.137 576.541C642.946 566.434 686.433 532.878 710.175 483.916C722.229 459.058 726.932 438.942 726.999 411.958C727.046 393.136 725.407 381.462 720.352 364.598C714.903 346.425 652.793 189.043 643.416 169.652C636.808 155.984 633.225 151.203 624.898 144.944C613.791 136.594 590.057 122.317 587.217 122.275C585.715 122.254 579.544 119.424 580.001 118.967C580.2 118.767 581.778 119.103 583.507 119.714C587.547 121.14 587.445 121.167 586.853 118.804C585.815 114.655 558.253 46.6868 554.167 38.1994C550.423 30.4229 549.296 28.784 544.71 24.4584C538.215 18.331 530.516 13.7778 521.282 10.6044C514.3 8.20479 513.878 8.15193 501.665 8.13284C487.257 8.11081 482.465 9.12776 470.664 14.7111C456.934 21.2071 446.57 30.9229 438.165 45.1793L435.815 49.1649L434.835 77.4678C434.295 93.0342 433.658 113.37 433.418 122.659C433.178 131.947 432.797 141.946 432.569 144.878L432.156 150.21L425.878 156.994C417.94 165.571 410.322 175.085 404.413 183.8C401.875 187.543 399.333 190.866 398.764 191.184C398.196 191.502 395.345 191.306 392.429 190.747C389.393 190.165 379.918 189.571 370.242 189.357C356.35 189.05 351.988 189.21 345.646 190.261C341.406 190.963 336.616 191.569 335.001 191.608L332.065 191.679L323.988 179.779C319.545 173.234 313.433 165.024 310.405 161.536C307.376 158.047 303.861 153.985 302.594 152.509L300.289 149.826L299.072 112.746C298.403 92.352 297.579 69.9453 297.243 62.9536C296.638 50.3632 296.607 50.1914 293.994 44.9642C287.86 32.6954 275.567 20.036 264.636 14.7324C254.651 9.88772 247.698 8.37514 234.047 8.07924C227.788 7.9434 222.006 7.98672 221.199 8.17469ZM240.265 29.8178C243.34 30.2452 247.173 31.0602 248.783 31.6285C255.986 34.1698 267.23 43.8812 270.877 50.7105C273.757 56.1015 274.358 60.8588 275.14 84.4382C275.529 96.1709 276.047 111.78 276.293 119.125L276.738 132.479L266.363 127.702C238.212 114.74 212.059 110.118 182.481 112.877C177.339 113.356 172.945 113.561 172.715 113.332C171.99 112.607 196.827 50.8912 200.728 43.7255C203.667 38.325 214.485 31.3847 222.379 29.8347C227.001 28.9264 233.814 28.9205 240.265 29.8178ZM507.605 30.5161C514.711 32.3224 524.289 36.8095 528.007 40.074C529.852 41.6938 531.947 44.9613 534.312 49.905C538.996 59.6942 560.447 113.313 559.899 113.86C559.664 114.095 554.484 113.885 548.388 113.392C535.007 112.312 513.898 113.386 502.399 115.732C491.957 117.862 477.159 122.96 466.048 128.253C460.795 130.755 456.397 132.668 456.273 132.504C455.856 131.95 457.136 86.8348 457.997 71.7104C458.483 63.1923 459.283 55.5148 459.853 53.8965C463.273 44.205 474.869 34.7014 488.082 30.7613C494.991 28.701 500.204 28.6357 507.605 30.5161ZM151.816 119.275C151.816 120.069 148.152 121.075 147.529 120.452C146.934 119.856 148.931 118.645 150.531 118.631C151.238 118.625 151.816 118.915 151.816 119.275ZM211.866 134.074C231.511 136.194 252.22 143.95 269.082 155.504C282.238 164.518 291.37 173.345 301.245 186.591C310.797 199.405 312.156 203.15 313.304 219.835C314.187 232.664 316.501 313.969 316.154 319.945L315.911 324.12L309.303 315.225C301.612 304.872 289.339 291.797 279.935 283.936C259.844 267.141 231.455 253.445 205.78 248.159C198.552 246.671 172.947 246.049 158.057 247.001C147.684 247.663 144.007 248.229 136.295 250.352C116.08 255.915 96.9675 264.636 79.9487 276.063C74.144 279.961 69.2638 283.018 69.103 282.857C68.589 282.344 105.521 184.125 110.196 173.57C115.119 162.458 141.825 145.137 164.274 138.497C179.896 133.876 196.084 132.372 211.866 134.074ZM552.358 136.612C572.762 139.593 600.526 152.943 614.545 166.515C618.331 170.181 619.978 172.543 622.618 178.096C627.234 187.803 662.823 277.592 662.823 279.53C662.823 280.396 659.563 278.603 649.341 272.115C633.086 261.797 611.393 252.982 592.447 248.997C570.163 244.31 539.773 245.214 517.543 251.225C496.977 256.786 475.113 268.019 458.15 281.74C446.727 290.98 429.496 309.649 422.275 320.612C419.173 325.32 417.091 327.689 416.599 327.072C416.473 326.914 416.622 324.14 416.932 320.91C417.241 317.679 417.518 290.631 417.546 260.803L417.598 206.57L422.477 198.391C429.001 187.451 435.383 179.308 444.722 170.008C453.806 160.962 462.048 154.592 470.941 149.743C483.628 142.827 501.251 136.798 512.678 135.464C520.169 134.59 543.043 135.251 552.358 136.612ZM296.483 145.824C298.499 147.6 298.646 147.881 297.189 147.183C294.364 145.83 291.687 143.585 292.896 143.585C293.47 143.585 295.085 144.593 296.483 145.824ZM438.89 145.035C438.89 145.845 434.531 148.281 434.011 147.762C433.606 147.356 437.35 144.319 438.255 144.319C438.605 144.319 438.89 144.641 438.89 145.035ZM375.803 204.901C378.398 205.568 383.742 207.471 387.68 209.131L394.838 212.148V259.086V306.024L391.718 305.605C390.002 305.376 383.766 304.783 377.862 304.29C368.49 303.505 365.645 303.554 355.469 304.672C349.057 305.376 342.992 306.014 341.991 306.089C340.309 306.214 340.131 305.912 339.643 302.093C339.116 297.976 335.915 212.501 336.278 212.237C338.231 210.814 355.782 204.255 359.596 203.522C362.684 202.929 370.828 203.621 375.803 204.901ZM193.666 269.904C213.833 272.027 236.537 280.273 254.115 291.859C290.068 315.557 312.393 351.653 317.712 394.684C318.81 403.566 318.638 422.412 317.379 431.272C311.148 475.11 286.552 513.546 250.548 535.711C238.004 543.433 219.334 550.809 203.9 554.139C197.125 555.601 194.106 555.795 177.881 555.817C166.462 555.832 157.028 555.477 152.918 554.879C127.002 551.104 101.628 539.77 81.6997 523.068C47.0996 494.07 29.2628 453.764 30.906 408.287C32.8759 353.764 62.1347 306.747 108.131 284.193C120.738 278.011 135.159 273.164 151.449 269.632C154.435 268.986 186.924 269.194 193.666 269.904ZM590.158 270.931C603.733 273.319 626.776 282.743 639.695 291.191C663.643 306.851 680.527 327.009 692.259 353.952C702.07 376.478 703.474 384.105 703.474 414.895C703.475 440.605 703.342 441.598 697.621 458.584C689.813 481.759 677.774 500.706 660.563 516.904C643.527 532.936 624.515 543.664 600.783 550.636C584.046 555.552 581.601 555.858 559.3 555.83C541.204 555.807 538.323 555.634 531.529 554.162C480.237 543.048 441.21 508.41 424.665 459.318C405.144 401.392 421.679 340.578 467.422 302.064C489.816 283.209 514.083 272.916 543.148 269.945C552.908 268.947 582.401 269.566 590.158 270.931Z" fill="#2C6EAB"/>
<path fill-rule="evenodd" clip-rule="evenodd" d="M221.199 8.17469C220.391 8.36266 217.481 9.03084 214.733 9.65864C203.735 12.172 192.777 18.2047 185.79 25.5929C180.691 30.9846 177.311 38.2721 161.709 77.5016C154.562 95.4727 147.241 113.047 145.442 116.556L142.169 122.937L135.387 126.193C122.035 132.604 106.119 143.561 95.5278 153.634L90.2664 158.638L70.288 212.606C31.1527 318.322 20.1837 348.217 16.6727 358.724C3.26096 398.863 5.44376 440.998 22.9479 479.878C26.4295 487.61 33.3289 500.131 37.5138 506.311C47.5269 521.098 70.2843 543.176 86.105 553.451C105.929 566.326 131.894 575.512 156.484 578.35C168.39 579.723 191.295 578.83 203.211 576.526C266.617 564.272 317.585 518.3 335.072 457.593C340.235 439.672 340.704 435.522 341.066 404.616C341.356 379.947 340.613 350.388 339.284 333.633L338.837 328L346.348 324.231C352.604 321.09 354.867 320.347 359.902 319.775C368.369 318.813 378.736 319.896 384.658 322.361C387.229 323.431 390.24 324.649 391.351 325.066L393.37 325.826L393.376 364.487C393.386 418.672 394.4 435.049 398.829 452.521C406.163 481.457 421.094 507.586 442.569 529.065C470.226 556.728 505.564 573.915 543.816 578.308C555.97 579.704 578.004 578.864 590.137 576.541C642.946 566.434 686.433 532.878 710.175 483.916C722.229 459.058 726.932 438.942 726.999 411.958C727.046 393.136 725.407 381.462 720.352 364.598C714.903 346.425 652.793 189.043 643.416 169.652C636.808 155.984 633.225 151.203 624.898 144.944C613.791 136.594 590.057 122.317 587.217 122.275C585.715 122.254 579.544 119.424 580.001 118.967C580.2 118.767 581.778 119.103 583.507 119.714C587.547 121.14 587.445 121.167 586.853 118.804C585.815 114.655 558.253 46.6868 554.167 38.1994C550.423 30.4229 549.296 28.784 544.71 24.4584C538.215 18.331 530.516 13.7778 521.282 10.6044C514.3 8.20479 513.878 8.15193 501.665 8.13284C487.257 8.11081 482.465 9.12776 470.664 14.7111C456.934 21.2071 446.57 30.9229 438.165 45.1793L435.815 49.1649L434.835 77.4678C434.295 93.0342 433.658 113.37 433.418 122.659C433.178 131.947 432.797 141.946 432.569 144.878L432.156 150.21L425.878 156.994C417.94 165.571 410.322 175.085 404.413 183.8C401.875 187.543 399.333 190.866 398.764 191.184C398.196 191.502 395.345 191.306 392.429 190.747C389.393 190.165 379.918 189.571 370.242 189.357C356.35 189.05 351.988 189.21 345.646 190.261C341.406 190.963 336.616 191.569 335.001 191.608L332.065 191.679L323.988 179.779C319.545 173.234 313.433 165.024 310.405 161.536C307.376 158.047 303.861 153.985 302.594 152.509L300.289 149.826L299.072 112.746C298.403 92.352 297.579 69.9453 297.243 62.9536C296.638 50.3632 296.607 50.1914 293.994 44.9642C287.86 32.6954 275.567 20.036 264.636 14.7324C254.651 9.88772 247.698 8.37514 234.047 8.07924C227.788 7.9434 222.006 7.98672 221.199 8.17469ZM240.265 29.8178C243.34 30.2452 247.173 31.0602 248.783 31.6285C255.986 34.1698 267.23 43.8812 270.877 50.7105C273.757 56.1015 274.358 60.8588 275.14 84.4382C275.529 96.1709 276.047 111.78 276.293 119.125L276.738 132.479L266.363 127.702C238.212 114.74 212.059 110.118 182.481 112.877C177.339 113.356 172.945 113.561 172.715 113.332C171.99 112.607 196.827 50.8912 200.728 43.7255C203.667 38.325 214.485 31.3847 222.379 29.8347C227.001 28.9264 233.814 28.9205 240.265 29.8178ZM507.605 30.5161C514.711 32.3224 524.289 36.8095 528.007 40.074C529.852 41.6938 531.947 44.9613 534.312 49.905C538.996 59.6942 560.447 113.313 559.899 113.86C559.664 114.095 554.484 113.885 548.388 113.392C535.007 112.312 513.898 113.386 502.399 115.732C491.957 117.862 477.159 122.96 466.048 128.253C460.795 130.755 456.397 132.668 456.273 132.504C455.856 131.95 457.136 86.8348 457.997 71.7104C458.483 63.1923 459.283 55.5148 459.853 53.8965C463.273 44.205 474.869 34.7014 488.082 30.7613C494.991 28.701 500.204 28.6357 507.605 30.5161ZM151.816 119.275C151.816 120.069 148.152 121.075 147.529 120.452C146.934 119.856 148.931 118.645 150.531 118.631C151.238 118.625 151.816 118.915 151.816 119.275ZM211.866 134.074C231.511 136.194 252.22 143.95 269.082 155.504C282.238 164.518 291.37 173.345 301.245 186.591C310.797 199.405 312.156 203.15 313.304 219.835C314.187 232.664 316.501 313.969 316.154 319.945L315.911 324.12L309.303 315.225C301.612 304.872 289.339 291.797 279.935 283.936C259.844 267.141 231.455 253.445 205.78 248.159C198.552 246.671 172.947 246.049 158.057 247.001C147.684 247.663 144.007 248.229 136.295 250.352C116.08 255.915 96.9675 264.636 79.9487 276.063C74.144 279.961 69.2638 283.018 69.103 282.857C68.589 282.344 105.521 184.125 110.196 173.57C115.119 162.458 141.825 145.137 164.274 138.497C179.896 133.876 196.084 132.372 211.866 134.074ZM552.358 136.612C572.762 139.593 600.526 152.943 614.545 166.515C618.331 170.181 619.978 172.543 622.618 178.096C627.234 187.803 662.823 277.592 662.823 279.53C662.823 280.396 659.563 278.603 649.341 272.115C633.086 261.797 611.393 252.982 592.447 248.997C570.163 244.31 539.773 245.214 517.543 251.225C496.977 256.786 475.113 268.019 458.15 281.74C446.727 290.98 429.496 309.649 422.275 320.612C419.173 325.32 417.091 327.689 416.599 327.072C416.473 326.914 416.622 324.14 416.932 320.91C417.241 317.679 417.518 290.631 417.546 260.803L417.598 206.57L422.477 198.391C429.001 187.451 435.383 179.308 444.722 170.008C453.806 160.962 462.048 154.592 470.941 149.743C483.628 142.827 501.251 136.798 512.678 135.464C520.169 134.59 543.043 135.251 552.358 136.612ZM296.483 145.824C298.499 147.6 298.646 147.881 297.189 147.183C294.364 145.83 291.687 143.585 292.896 143.585C293.47 143.585 295.085 144.593 296.483 145.824ZM438.89 145.035C438.89 145.845 434.531 148.281 434.011 147.762C433.606 147.356 437.35 144.319 438.255 144.319C438.605 144.319 438.89 144.641 438.89 145.035ZM375.803 204.901C378.398 205.568 383.742 207.471 387.68 209.131L394.838 212.148V259.086V306.024L391.718 305.605C390.002 305.376 383.766 304.783 377.862 304.29C368.49 303.505 365.645 303.554 355.469 304.672C349.057 305.376 342.992 306.014 341.991 306.089C340.309 306.214 340.131 305.912 339.643 302.093C339.116 297.976 335.915 212.501 336.278 212.237C338.231 210.814 355.782 204.255 359.596 203.522C362.684 202.929 370.828 203.621 375.803 204.901ZM193.666 269.904C213.833 272.027 236.537 280.273 254.115 291.859C290.068 315.557 312.393 351.653 317.712 394.684C318.81 403.566 318.638 422.412 317.379 431.272C311.148 475.11 286.552 513.546 250.548 535.711C238.004 543.433 219.334 550.809 203.9 554.139C197.125 555.601 194.106 555.795 177.881 555.817C166.462 555.832 157.028 555.477 152.918 554.879C127.002 551.104 101.628 539.77 81.6997 523.068C47.0996 494.07 29.2628 453.764 30.906 408.287C32.8759 353.764 62.1347 306.747 108.131 284.193C120.738 278.011 135.159 273.164 151.449 269.632C154.435 268.986 186.924 269.194 193.666 269.904ZM590.158 270.931C603.733 273.319 626.776 282.743 639.695 291.191C663.643 306.851 680.527 327.009 692.259 353.952C702.07 376.478 703.474 384.105 703.474 414.895C703.475 440.605 703.342 441.598 697.621 458.584C689.813 481.759 677.774 500.706 660.563 516.904C643.527 532.936 624.515 543.664 600.783 550.636C584.046 555.552 581.601 555.858 559.3 555.83C541.204 555.807 538.323 555.634 531.529 554.162C480.237 543.048 441.21 508.41 424.665 459.318C405.144 401.392 421.679 340.578 467.422 302.064C489.816 283.209 514.083 272.916 543.148 269.945C552.908 268.947 582.401 269.566 590.158 270.931Z" stroke="#2C6EAB" stroke-width="16" mask="url(#path-1-outside-1_3_24)"/>
</svg>
