<svg width="205" height="51" viewBox="0 0 205 51" fill="none" xmlns="http://www.w3.org/2000/svg">
<path d="M93.8159 1H189.816C197.548 1 203.816 7.26797 203.816 15.0001V35.9999C203.816 43.732 197.548 50 189.816 50H93.8159C86.0839 50 79.8159 43.732 79.8159 35.9999V15.0001C79.8159 7.26797 86.0839 1 93.8159 1Z" stroke="#B0B0B0" stroke-width="2"/>
<path d="M0 33.0001H4.004V25.9541H12.688V22.3141H4.004V18.4401H13.858V14.8001H0V33.0001Z" fill="#B0B0B0"/>
<path d="M16.7245 17.5301H20.8845V14.0201H16.7245V17.5301ZM16.8285 33.0001H20.7805V19.0641H16.8285V33.0001Z" fill="#B0B0B0"/>
<path d="M24.4922 33.0001H28.4442V25.2261C28.4442 23.3541 29.4062 22.3921 30.9142 22.3921C32.4222 22.3921 33.3062 23.3541 33.3062 25.2261V33.0001H37.2582V23.9781C37.2582 20.7801 35.5162 18.8041 32.5262 18.8041C30.5242 18.8041 29.3542 19.8701 28.4442 21.0401V19.0641H24.4922V33.0001Z" fill="#B0B0B0"/>
<path d="M46.4114 33.2601C48.4654 33.2601 49.7914 32.2981 50.7534 30.9981V33.0001H54.7054V14.0201H50.7534V20.8841C49.8174 19.7661 48.5174 18.8041 46.4114 18.8041C43.1094 18.8041 40.0674 21.3521 40.0674 26.0061C40.0674 30.7121 43.1614 33.2601 46.4114 33.2601ZM47.4254 29.9061C45.5794 29.9061 44.0194 28.3721 44.0194 26.0581C44.0194 23.6661 45.5794 22.1581 47.4254 22.1581C49.2714 22.1581 50.8054 23.6921 50.8054 26.0061C50.8054 28.3721 49.2714 29.9061 47.4254 29.9061Z" fill="#B0B0B0"/>
<path d="M108.904 30.0002H111.336V25.2162C111.336 24.0642 111.896 23.4722 112.808 23.4722C113.72 23.4722 114.232 24.0642 114.232 25.2162V30.0002H116.664V25.2162C116.664 24.0642 117.224 23.4722 118.136 23.4722C119.048 23.4722 119.56 24.0642 119.56 25.2162V30.0002H121.992V24.4162C121.992 22.3522 120.904 21.2642 119.096 21.2642C117.928 21.2642 117.032 21.7442 116.28 22.6242C115.832 21.7602 114.984 21.2642 113.864 21.2642C112.632 21.2642 111.896 21.9202 111.336 22.6402V21.4242H108.904V30.0002ZM125.921 32.6082C127.377 32.6082 128.081 31.9522 128.737 30.2082L132.033 21.4242H129.505L127.633 27.2642L125.681 21.4242H123.105L126.465 30.0322C126.257 30.4642 126.033 30.5922 125.617 30.5922C125.297 30.5922 124.897 30.4482 124.577 30.2562L123.761 32.0162C124.385 32.3842 125.041 32.6082 125.921 32.6082ZM142.311 30.1922C144.023 30.1922 144.983 29.5362 145.815 28.6242L144.391 27.1842C143.799 27.7442 143.239 28.0962 142.423 28.0962C141.095 28.0962 140.247 27.0402 140.247 25.7282C140.247 24.4322 141.111 23.3602 142.327 23.3602C143.287 23.3602 143.799 23.7122 144.327 24.2082L145.751 22.7682C144.951 21.8722 143.959 21.2642 142.343 21.2642C139.719 21.2642 137.847 23.2802 137.847 25.7282C137.847 28.2082 139.735 30.1922 142.311 30.1922ZM149.836 30.1602C151.02 30.1602 151.836 29.7282 152.428 29.0722V30.0002H154.78V25.0242C154.78 23.8722 154.492 22.9282 153.852 22.2882C153.244 21.6802 152.284 21.3282 150.956 21.3282C149.5 21.3282 148.572 21.6002 147.628 22.0162L148.236 23.8722C149.02 23.5842 149.676 23.4082 150.604 23.4082C151.82 23.4082 152.444 23.9682 152.444 24.9762V25.1202C151.836 24.9122 151.212 24.7682 150.348 24.7682C148.316 24.7682 146.892 25.6322 146.892 27.5042C146.892 29.2322 148.22 30.1602 149.836 30.1602ZM150.572 28.4802C149.788 28.4802 149.244 28.0962 149.244 27.4402C149.244 26.6402 149.884 26.2242 150.924 26.2242C151.516 26.2242 152.06 26.3522 152.476 26.5442V26.9762C152.476 27.8562 151.708 28.4802 150.572 28.4802ZM156.873 30.0002H159.305V26.8322C159.305 24.7842 160.297 23.8082 161.913 23.8082H162.041V21.2642C160.601 21.2002 159.801 21.9682 159.305 23.1522V21.4242H156.873V30.0002ZM167.244 32.5922C168.908 32.5922 170.14 32.2402 170.94 31.4402C171.66 30.7202 172.028 29.6002 172.028 28.0642V21.4242H169.596V22.5442C168.94 21.8242 168.156 21.2642 166.828 21.2642C164.86 21.2642 163.02 22.7042 163.02 25.2642C163.02 27.8402 164.828 29.2962 166.828 29.2962C168.124 29.2962 168.908 28.7682 169.628 27.9042V28.3202C169.628 29.8562 168.844 30.6562 167.18 30.6562C166.044 30.6562 165.164 30.3682 164.284 29.8722L163.452 31.6962C164.54 32.2722 165.852 32.5922 167.244 32.5922ZM167.532 27.2802C166.348 27.2802 165.452 26.4802 165.452 25.2962C165.452 24.0962 166.348 23.2802 167.532 23.2802C168.716 23.2802 169.628 24.0962 169.628 25.2642C169.628 26.4642 168.716 27.2802 167.532 27.2802ZM178.409 30.1922C181.081 30.1922 183.065 28.1922 183.065 25.7282C183.065 23.2322 181.097 21.2642 178.441 21.2642C175.769 21.2642 173.785 23.2642 173.785 25.7282C173.785 28.2242 175.753 30.1922 178.409 30.1922ZM178.441 28.0962C177.097 28.0962 176.185 26.9922 176.185 25.7282C176.185 24.4322 177.017 23.3602 178.409 23.3602C179.753 23.3602 180.665 24.4642 180.665 25.7282C180.665 27.0242 179.833 28.0962 178.441 28.0962Z" fill="#B0B0B0"/>
<path d="M80.1108 9.32092C89.0126 9.32092 96.229 16.5372 96.229 25.4392C96.229 34.341 89.0126 41.5574 80.1108 41.5574C71.2088 41.5574 63.9925 34.341 63.9925 25.4392C63.9925 16.5372 71.2088 9.32092 80.1108 9.32092Z" fill="#B0B0B0" stroke="#F9F7F7" stroke-width="3"/>
<path d="M83.5046 27.5397C84.1784 26.6285 84.578 25.5018 84.578 24.2811C84.578 21.2534 82.1247 18.8002 79.097 18.8002C76.0693 18.8002 73.616 21.2534 73.616 24.2811C73.616 27.3088 76.0693 29.7621 79.097 29.7621C80.3177 29.7621 81.4445 29.3625 82.3558 28.6886C82.3722 28.7952 82.4224 28.8914 82.4943 28.9666L82.4943 28.9667L82.4974 28.9698L85.5797 32.0521C85.7771 32.2495 86.0967 32.2495 86.2941 32.0521L86.8679 31.4783C87.0654 31.2808 87.0654 30.9612 86.8679 30.7638L83.7857 27.6815C83.7075 27.6034 83.6094 27.5553 83.5046 27.5397ZM79.097 28.1434C76.963 28.1434 75.2347 26.4151 75.2347 24.2811C75.2347 22.1472 76.963 20.4188 79.097 20.4188C81.231 20.4188 82.9593 22.1472 82.9593 24.2811C82.9593 26.4151 81.231 28.1434 79.097 28.1434Z" fill="white" stroke="white" stroke-width="0.4"/>
</svg>
