<svg width="205" height="51" viewBox="0 0 205 51" fill="none" xmlns="http://www.w3.org/2000/svg">
<path d="M93.8159 1H189.816C197.548 1 203.816 7.26797 203.816 15.0001V35.9999C203.816 43.732 197.548 50 189.816 50H93.8159C86.084 50 79.8159 43.732 79.8159 35.9999V15.0001C79.8159 7.26797 86.084 1 93.8159 1Z" fill="#EEF7FD" stroke="#2C6EAB" stroke-width="2"/>
<path d="M0 33.0001H4.004V25.9541H12.688V22.3141H4.004V18.4401H13.858V14.8001H0V33.0001Z" fill="black"/>
<path d="M16.7245 17.5301H20.8845V14.0201H16.7245V17.5301ZM16.8285 33.0001H20.7805V19.0641H16.8285V33.0001Z" fill="black"/>
<path d="M24.4922 33.0001H28.4442V25.2261C28.4442 23.3541 29.4062 22.3921 30.9142 22.3921C32.4222 22.3921 33.3062 23.3541 33.3062 25.2261V33.0001H37.2582V23.9781C37.2582 20.7801 35.5162 18.8041 32.5262 18.8041C30.5242 18.8041 29.3542 19.8701 28.4442 21.0401V19.0641H24.4922V33.0001Z" fill="black"/>
<path d="M46.4114 33.2601C48.4654 33.2601 49.7914 32.2981 50.7534 30.9981V33.0001H54.7054V14.0201H50.7534V20.8841C49.8174 19.7661 48.5174 18.8041 46.4114 18.8041C43.1094 18.8041 40.0674 21.3521 40.0674 26.0061C40.0674 30.7121 43.1614 33.2601 46.4114 33.2601ZM47.4254 29.9061C45.5794 29.9061 44.0194 28.3721 44.0194 26.0581C44.0194 23.6661 45.5794 22.1581 47.4254 22.1581C49.2714 22.1581 50.8054 23.6921 50.8054 26.0061C50.8054 28.3721 49.2714 29.9061 47.4254 29.9061Z" fill="black"/>
<path d="M108.904 30.0001H111.336V25.2161C111.336 24.0641 111.896 23.4721 112.808 23.4721C113.72 23.4721 114.232 24.0641 114.232 25.2161V30.0001H116.664V25.2161C116.664 24.0641 117.224 23.4721 118.136 23.4721C119.048 23.4721 119.56 24.0641 119.56 25.2161V30.0001H121.992V24.4161C121.992 22.3521 120.904 21.2641 119.096 21.2641C117.928 21.2641 117.032 21.7441 116.28 22.6241C115.832 21.7601 114.984 21.2641 113.864 21.2641C112.632 21.2641 111.896 21.9201 111.336 22.6401V21.4241H108.904V30.0001ZM125.921 32.6081C127.377 32.6081 128.081 31.9521 128.737 30.2081L132.033 21.4241H129.505L127.633 27.2641L125.681 21.4241H123.105L126.465 30.0321C126.257 30.4641 126.033 30.5921 125.617 30.5921C125.297 30.5921 124.897 30.4481 124.577 30.2561L123.761 32.0161C124.385 32.3841 125.041 32.6081 125.921 32.6081ZM142.311 30.1921C144.023 30.1921 144.983 29.5361 145.815 28.6241L144.391 27.1841C143.799 27.7441 143.239 28.0961 142.423 28.0961C141.095 28.0961 140.247 27.0401 140.247 25.7281C140.247 24.4321 141.111 23.3601 142.327 23.3601C143.287 23.3601 143.799 23.7121 144.327 24.2081L145.751 22.7681C144.951 21.8721 143.959 21.2641 142.343 21.2641C139.719 21.2641 137.847 23.2801 137.847 25.7281C137.847 28.2081 139.735 30.1921 142.311 30.1921ZM149.836 30.1601C151.02 30.1601 151.836 29.7281 152.428 29.0721V30.0001H154.78V25.0241C154.78 23.8721 154.492 22.9281 153.852 22.2881C153.244 21.6801 152.284 21.3281 150.956 21.3281C149.5 21.3281 148.572 21.6001 147.628 22.0161L148.236 23.8721C149.02 23.5841 149.676 23.4081 150.604 23.4081C151.82 23.4081 152.444 23.9681 152.444 24.9761V25.1201C151.836 24.9121 151.212 24.7681 150.348 24.7681C148.316 24.7681 146.892 25.6321 146.892 27.5041C146.892 29.2321 148.22 30.1601 149.836 30.1601ZM150.572 28.4801C149.788 28.4801 149.244 28.0961 149.244 27.4401C149.244 26.6401 149.884 26.2241 150.924 26.2241C151.516 26.2241 152.06 26.3521 152.476 26.5441V26.9761C152.476 27.8561 151.708 28.4801 150.572 28.4801ZM156.873 30.0001H159.305V26.8321C159.305 24.7841 160.297 23.8081 161.913 23.8081H162.041V21.2641C160.601 21.2001 159.801 21.9681 159.305 23.1521V21.4241H156.873V30.0001ZM167.244 32.5921C168.908 32.5921 170.14 32.2401 170.94 31.4401C171.66 30.7201 172.028 29.6001 172.028 28.0641V21.4241H169.596V22.5441C168.94 21.8241 168.156 21.2641 166.828 21.2641C164.86 21.2641 163.02 22.7041 163.02 25.2641C163.02 27.8401 164.828 29.2961 166.828 29.2961C168.124 29.2961 168.908 28.7681 169.628 27.9041V28.3201C169.628 29.8561 168.844 30.6561 167.18 30.6561C166.044 30.6561 165.164 30.3681 164.284 29.8721L163.452 31.6961C164.54 32.2721 165.852 32.5921 167.244 32.5921ZM167.532 27.2801C166.348 27.2801 165.452 26.4801 165.452 25.2961C165.452 24.0961 166.348 23.2801 167.532 23.2801C168.716 23.2801 169.628 24.0961 169.628 25.2641C169.628 26.4641 168.716 27.2801 167.532 27.2801ZM178.409 30.1921C181.081 30.1921 183.065 28.1921 183.065 25.7281C183.065 23.2321 181.097 21.2641 178.441 21.2641C175.769 21.2641 173.785 23.2641 173.785 25.7281C173.785 28.2241 175.753 30.1921 178.409 30.1921ZM178.441 28.0961C177.097 28.0961 176.185 26.9921 176.185 25.7281C176.185 24.4321 177.017 23.3601 178.409 23.3601C179.753 23.3601 180.665 24.4641 180.665 25.7281C180.665 27.0241 179.833 28.0961 178.441 28.0961Z" fill="#2C6EAB"/>
<path d="M80.1108 9.32089C89.0126 9.32089 96.229 16.5372 96.229 25.4391C96.229 34.341 89.0126 41.5574 80.1108 41.5574C71.2088 41.5574 63.9925 34.341 63.9925 25.4391C63.9925 16.5372 71.2088 9.32089 80.1108 9.32089Z" fill="#2C6EAB" stroke="#EEF7FD" stroke-width="3"/>
<path d="M83.5046 27.5397C84.1784 26.6285 84.578 25.5017 84.578 24.2811C84.578 21.2534 82.1247 18.8001 79.097 18.8001C76.0693 18.8001 73.616 21.2534 73.616 24.2811C73.616 27.3088 76.0693 29.7621 79.097 29.7621C80.3177 29.7621 81.4445 29.3625 82.3558 28.6885C82.3722 28.7951 82.4224 28.8914 82.4943 28.9666L82.4943 28.9666L82.4974 28.9698L85.5797 32.052C85.7771 32.2495 86.0967 32.2495 86.2941 32.052L86.8679 31.4782C87.0654 31.2808 87.0654 30.9612 86.8679 30.7638L83.7857 27.6815C83.7075 27.6033 83.6094 27.5553 83.5046 27.5397ZM79.097 28.1434C76.963 28.1434 75.2347 26.4151 75.2347 24.2811C75.2347 22.1471 76.963 20.4188 79.097 20.4188C81.231 20.4188 82.9593 22.1471 82.9593 24.2811C82.9593 26.4151 81.231 28.1434 79.097 28.1434Z" fill="#EEF7FD" stroke="#EEF7FD" stroke-width="0.4"/>
</svg>
