<svg width="24" height="24" viewBox="0 0 24 24" fill="none" xmlns="http://www.w3.org/2000/svg">
<rect width="24" height="24" rx="12" fill="#1D9BF0"/>
<path d="M9.804 18.33C15.126 18.33 18.036 13.92 18.036 10.098C18.036 9.97201 18.036 9.84601 18.03 9.72601C18.594 9.31801 19.086 8.80801 19.476 8.22601C18.96 8.45401 18.402 8.61001 17.814 8.68201C18.414 8.32201 18.87 7.75801 19.086 7.08001C18.528 7.41001 17.91 7.65001 17.25 7.78201C16.722 7.21801 15.972 6.87001 15.138 6.87001C13.542 6.87001 12.246 8.16601 12.246 9.76201C12.246 9.99001 12.27 10.212 12.324 10.422C9.918 10.302 7.788 9.15001 6.36 7.39801C6.114 7.82401 5.97 8.32201 5.97 8.85001C5.97 9.85201 6.48 10.74 7.26 11.256C6.786 11.244 6.342 11.112 5.952 10.896C5.952 10.908 5.952 10.92 5.952 10.932C5.952 12.336 6.948 13.5 8.274 13.77C8.034 13.836 7.776 13.872 7.512 13.872C7.326 13.872 7.146 13.854 6.966 13.818C7.332 14.97 8.4 15.804 9.666 15.828C8.676 16.602 7.428 17.064 6.072 17.064C5.838 17.064 5.61 17.052 5.382 17.022C6.648 17.85 8.172 18.33 9.804 18.33Z" fill="white"/>
</svg>
