<svg width="16" height="17" viewBox="0 0 16 17" fill="none" xmlns="http://www.w3.org/2000/svg">
<path d="M8.00002 0.82077C12.4183 0.82077 16 4.40246 16 8.82078C16 13.2391 12.4183 16.8208 8.00002 16.8208C3.58171 16.8208 0 13.2391 0 8.82078C0 4.40246 3.58171 0.82077 8.00002 0.82077Z" fill="#2C6EAB"/>
<path d="M8.00002 0.82077C12.4183 0.82077 16 4.40246 16 8.82078C16 13.2391 12.4183 16.8208 8.00002 16.8208C3.58171 16.8208 0 13.2391 0 8.82078C0 4.40246 3.58171 0.82077 8.00002 0.82077Z" stroke="white"/>
<path d="M9.28489 11.1864L9.28486 11.1864L9.288 11.1896L11.1848 13.0863C11.3363 13.2379 11.5817 13.2379 11.7332 13.0863L12.0863 12.7332C12.2379 12.5817 12.2379 12.3363 12.0863 12.1848L10.1896 10.288C10.1587 10.2572 10.1238 10.2324 10.0862 10.214C10.4726 9.65647 10.6997 8.97978 10.6997 8.24984C10.6997 6.34416 9.15552 4.8 7.24984 4.8C5.34416 4.8 3.8 6.34416 3.8 8.24984C3.8 10.1555 5.34416 11.6997 7.24984 11.6997C7.98 11.6997 8.65688 11.4725 9.21453 11.0859C9.2328 11.123 9.25672 11.1569 9.28489 11.1864ZM7.24984 10.5497C5.97912 10.5497 4.94996 9.52057 4.94996 8.24984C4.94996 6.97912 5.97912 5.94996 7.24984 5.94996C8.52057 5.94996 9.54972 6.97912 9.54972 8.24984C9.54972 9.52057 8.52057 10.5497 7.24984 10.5497Z" fill="white" stroke="white" stroke-width="0.4"/>
</svg>
